<?xml version="1.0" encoding="UTF-8" standalone="no"?>
<svg
   inkscape:version="1.0 (4035a4fb49, 2020-05-01)"
   id="svg8"
   version="1.1"
   viewBox="0 0 79.374998 79.375004"
   height="300"
   width="300"
   xml:space="preserve"
   xmlns:inkscape="http://www.inkscape.org/namespaces/inkscape"
   xmlns:sodipodi="http://sodipodi.sourceforge.net/DTD/sodipodi-0.dtd"
   xmlns="http://www.w3.org/2000/svg"
   xmlns:svg="http://www.w3.org/2000/svg"
   xmlns:rdf="http://www.w3.org/1999/02/22-rdf-syntax-ns#"
   xmlns:cc="http://creativecommons.org/ns#"
   xmlns:dc="http://purl.org/dc/elements/1.1/"><defs
     id="defs2" /><sodipodi:namedview
     units="px"
     showgrid="true"
     inkscape:document-rotation="0"
     inkscape:current-layer="layer1"
     inkscape:document-units="px"
     inkscape:cy="560"
     inkscape:cx="400"
     inkscape:zoom="0.35"
     inkscape:pageshadow="2"
     inkscape:pageopacity="0.0"
     borderopacity="1.0"
     bordercolor="#666666"
     pagecolor="#ffffff"
     id="base"
     inkscape:showpageshadow="2"
     inkscape:pagecheckerboard="0"
     inkscape:deskcolor="#d1d1d1"><inkscape:grid
       empspacing="4"
       spacingy="15.875"
       spacingx="15.875"
       id="grid10"
       type="xygrid"
       originx="0"
       originy="0"
       units="px"
       visible="true" /></sodipodi:namedview><metadata
     id="metadata5"><rdf:RDF><cc:Work
         rdf:about=""><dc:format>image/svg+xml</dc:format><dc:type
           rdf:resource="http://purl.org/dc/dcmitype/StillImage" /></cc:Work></rdf:RDF></metadata><g
     id="layer1"
     inkscape:groupmode="layer"
     inkscape:label="Layer 1"><g
       id="g12"
       transform="translate(309.60439,15.759811)"><path
         style="fill:#000000;stroke-width:0.783588;stroke-linecap:square;stroke-linejoin:round;stroke-miterlimit:100;paint-order:stroke fill markers"
         d="m -299.29863,61.465716 v -2.149475 l 0.34724,-0.926116 c 1.06944,-2.852235 4.352,-11.41086 4.39175,-11.450615 0.0258,-0.02576 0.33332,0.239633 0.68345,0.589771 l 0.63662,0.636611 -0.12197,0.417672 c -0.0671,0.229721 -0.54621,1.810505 -1.06474,3.512854 -1.95363,6.413941 -2.28651,7.526382 -2.28651,7.641335 0,0.103498 0.3609,0.115571 2.91645,0.09757 l 2.91644,-0.02054 0.21383,-0.844245 c 0.71779,-2.834086 3.08748,-5.69745 6.80718,-8.22531 3.44818,-2.343337 7.26474,-3.872366 11.20232,-4.487986 1.27253,-0.198954 3.80989,-0.240818 5.08939,-0.08397 2.61205,0.320202 4.99612,1.031317 7.48723,2.233281 2.86441,1.382087 5.19109,3.023556 7.3295,5.170958 2.02756,2.036076 3.1647,3.805553 3.65938,5.694235 l 0.14223,0.543037 3.19106,0.02047 c 2.57782,0.01653 3.19106,8.77e-4 3.19106,-0.08148 0,-0.05607 -1.07837,-3.115405 -2.39638,-6.798522 -1.318,-3.683117 -2.56562,-7.172608 -2.77248,-7.754424 -0.20686,-0.581815 -0.53522,-1.498616 -0.72969,-2.037334 -0.19448,-0.538717 -1.55558,-4.346965 -3.02468,-8.462771 -1.4691,-4.115806 -3.22825,-9.034793 -3.90923,-10.93108 l -1.23814,-3.447796 -2.07393,0.02719 c -1.14067,0.01495 -2.08615,0.03892 -2.10108,0.05326 -0.0149,0.01434 0.0774,0.178413 0.20523,0.364606 0.66148,0.963688 1.19136,2.426602 1.19265,3.292728 7e-4,0.474698 -0.13798,1.124671 -0.31446,1.473706 -0.0764,0.151181 -0.46885,0.715366 -0.87204,1.253744 -0.40318,0.538378 -1.20126,1.621462 -1.7735,2.406851 -0.57223,0.785391 -1.18135,1.590798 -1.35357,1.789795 -0.45408,0.524641 -0.63491,0.923512 -0.63928,1.410093 -0.007,0.725522 0.12582,0.880656 1.90255,2.230177 8.2883,6.2954 10.74773,8.18635 10.95613,8.423704 0.43606,0.496652 0.58726,0.880187 0.58622,1.487075 -10e-4,0.689076 -0.21676,1.172943 -0.77012,1.728472 -1.04507,1.049173 -2.40593,1.173019 -3.80995,0.346729 -1.17127,-0.689318 -7.95785,-5.661633 -13.03705,-9.551853 -2.79517,-2.140845 -3.06027,-2.46411 -3.05786,-3.728685 0.002,-0.831908 0.11158,-1.095305 0.81805,-1.958974 1.4016,-1.713482 4.29165,-5.784503 4.67989,-6.592258 0.22754,-0.473423 0.26486,-0.627862 0.2447,-1.012692 l -0.0238,-0.454079 -0.63767,-0.375916 c -0.83829,-0.494182 -1.46126,-1.071337 -1.70554,-1.580112 -0.21309,-0.443805 -0.19944,-0.357373 -0.71372,-4.520538 -0.4034,-3.265614 -0.77511,-5.266699 -1.10295,-5.937813 -0.55738,-1.1409539 -1.82135,-1.9148749 -3.55397,-2.1760603 -1.43875,-0.2168867 -2.34002,-0.092087 -3.53067,0.4889002 -0.82622,0.4031637 -1.56887,1.0586201 -1.87146,1.6517401 -0.38508,0.754834 -0.42174,1.120197 -0.3269,3.258592 0.0984,2.218345 0.29701,5.453217 0.35682,5.811052 0.036,0.215436 -0.0366,0.312211 -0.82256,1.09569 l -0.86205,0.859382 V 20.888611 19.89087 h -1.04817 -1.04816 l -0.44914,1.273334 c -0.24703,0.700334 -0.85014,2.401703 -1.34024,3.780822 -0.4901,1.379118 -1.55295,4.381998 -2.36187,6.673068 l -1.47078,4.16558 -1.36683,1.454602 c -0.75176,0.800031 -1.38142,1.440012 -1.39925,1.422183 -0.0178,-0.01783 0.16529,-0.583554 0.40693,-1.257162 0.24164,-0.673609 0.43935,-1.239901 0.43935,-1.258429 0,-0.01853 -0.0514,-0.03369 -0.11432,-0.03369 -0.0629,0 -0.55578,-0.484845 -1.09534,-1.077435 -4.54229,-4.988756 -7.34516,-10.924005 -8.24273,-17.454467 -0.19876,-1.446107 -0.20145,-5.253103 -0.005,-6.856413 1.17317,-9.5670084 6.62496,-17.7726745 15.02072,-22.608151 3.53968,-2.038654 7.51277,-3.313205 11.71971,-3.759633 1.44431,-0.153267 4.73583,-0.153169 6.18532,1.86e-4 13.23761,1.400503 23.95472,11.2642515 26.43521,24.3302672 0.35558,1.8730428 0.44002,2.9094268 0.44049,5.4067708 4.6e-4,2.66907 -0.0686,3.369513 -0.55689,5.641848 -1.1984,5.577421 -4.2343,11.421538 -8.13129,15.652779 -0.32776,0.355867 -0.59592,0.660168 -0.59592,0.676227 0,0.02715 1.45404,3.94125 3.52553,9.490284 1.00332,2.687655 1.498,4.017839 3.6366,9.778653 l 1.53572,4.136805 v 2.073145 2.073146 h -29.38466 -29.38462 z m 47.8998,-1.880804 c -0.009,-0.126428 -0.16024,-0.528975 -0.33566,-0.89455 -1.73074,-3.606966 -6.80711,-7.55968 -11.92281,-9.283688 -4.21019,-1.418848 -8.06513,-1.406782 -12.51716,0.03918 -5.0425,1.63774 -10.0569,5.396302 -11.75414,8.810366 -0.32845,0.66069 -0.58104,1.416256 -0.51123,1.529211 0.0243,0.03934 7.97563,0.06039 18.55014,0.0491 l 18.50758,-0.01975 z m -37.22119,-28.038141 c 0.28422,-0.786529 0.81539,-2.258698 1.18037,-3.271488 2.53799,-7.042642 3.6034,-9.927843 3.70373,-10.029952 0.0959,-0.09755 0.34142,-0.112961 1.44439,-0.09061 1.0738,0.02175 1.3288,0.0067 1.32838,-0.07836 -3.1e-4,-0.05791 -0.12326,-1.603898 -0.27327,-3.43554 -0.3939,-4.8092642 -0.37866,-5.09111 0.31717,-5.8650419 0.69355,-0.7713899 2.56341,-1.4392979 5.32421,-1.9017898 1.2007,-0.2011412 3.0438,-0.2465616 3.49576,-0.086148 0.55398,0.1966242 1.35411,1.1321623 5.24199,6.1290817 1.39159,1.788544 2.88633,3.688237 3.32165,4.221539 l 0.79148,0.96964 3.39767,-0.02933 3.39766,-0.02933 1.3921,3.722053 c 0.76565,2.047128 1.90933,5.114884 2.54151,6.817233 0.63218,1.702349 1.23973,3.33489 1.35012,3.62787 0.11165,0.296332 0.24048,0.52015 0.29036,0.504428 0.1404,-0.04426 1.3995,-1.573973 2.07908,-2.525939 3.00297,-4.206587 4.80648,-8.954428 5.26457,-13.859243 0.11721,-1.254949 0.0504,-4.36436 -0.11973,-5.569801 -0.70753,-5.0140789 -2.46546,-9.1788365 -5.57482,-13.2074788 -0.80671,-1.0452132 -3.29914,-3.5746142 -4.24936,-4.312394 -3.76732,-2.9250648 -7.54116,-4.6758132 -11.88485,-5.5135912 -6.17281,-1.190561 -12.76172,-0.111517 -18.23321,2.9859897 -2.22749,1.2610161 -3.95894,2.5814059 -5.83099,4.4466479 -3.1233,3.11193 -5.33304,6.6914925 -6.64621,10.7661516 -1.77636,5.5119198 -1.72908,11.1716898 0.1392,16.6628958 0.85927,2.525531 2.28756,5.284785 3.89673,7.527947 0.71188,0.992339 2.23585,2.85462 2.33605,2.85462 0.0338,0 0.29403,-0.643522 0.57826,-1.430051 z"
         id="path8" /><path
         style="fill:#000000;stroke-width:0.783588;stroke-linecap:square;stroke-linejoin:round;stroke-miterlimit:100;paint-order:stroke fill markers"
         d="m -282.02047,6.4786765 c -0.72124,-0.1355537 -1.62803,-0.6411357 -2.23053,-1.243641 -1.7852,-1.7851952 -1.78776,-4.56661493 -0.006,-6.3470131 0.64275,-0.6422117 1.26267,-1.0162496 2.00455,-1.209484 0.60984,-0.1588438 1.84318,-0.1562111 2.39206,0.0051 1.96369,0.5771409 3.31645,2.35307565 3.30689,4.3413746 -0.006,1.3181407 -0.40966,2.2810886 -1.34377,3.2082722 -1.11659,1.1083068 -2.5497,1.54115 -4.12336,1.2453856 z"
         id="path1" /><path
         style="fill:#000000;stroke-width:0.783588;stroke-linecap:square;stroke-linejoin:round;stroke-miterlimit:100;paint-order:stroke fill markers"
         d="m -291.07028,6.8399237 c -1.4003,-0.6635338 -2.55699,-1.2393692 -2.57041,-1.2796342 -0.0364,-0.1091748 1.17862,-2.6768325 1.46063,-3.0867254 0.15626,-0.227099 0.37423,-0.4177145 0.60596,-0.5298929 0.33183,-0.160635 0.39719,-0.1673108 0.78606,-0.080285 0.62039,0.1388358 1.12757,0.6327355 1.12757,1.0980487 0,0.2017036 0.037,0.2007456 0.33093,-0.00857 0.66723,-0.4751042 1.85909,-0.1365328 2.25563,0.6407549 0.18811,0.3687235 0.20811,1.0849151 0.0433,1.5519254 -0.22669,0.6425174 -1.32742,2.9129399 -1.40933,2.906963 -0.0464,-0.00338 -1.23007,-0.5490476 -2.63038,-1.2125814 z m 2.70371,-1.2103916 c 0.41639,-0.8832898 0.43546,-1.1036121 0.12258,-1.4164895 -0.18511,-0.1851119 -0.29651,-0.2290491 -0.58072,-0.2290491 -0.29006,0 -0.38445,0.038948 -0.53871,0.222267 -0.25256,0.3001542 -0.82631,1.5994713 -0.72168,1.6343459 0.0453,0.015091 0.32683,0.1478752 0.62567,0.2950763 0.29885,0.1472012 0.58804,0.261028 0.64265,0.2529497 0.0546,-0.00808 0.25721,-0.3496743 0.45021,-0.7591003 z m -2.31272,-0.9197057 c 0.37633,-0.8030724 0.3922,-1.1320304 0.0663,-1.3743054 -0.26196,-0.1947339 -0.57207,-0.1978181 -0.78268,-0.00778 -0.16283,0.1469319 -0.77228,1.284231 -0.77228,1.4411673 0,0.06169 1.03642,0.6255517 1.14981,0.6255517 0.01,0 0.1624,-0.3080835 0.33886,-0.6846293 z"
         id="path2" /><path
         style="fill:#000000;stroke-width:0.783588;stroke-linecap:square;stroke-linejoin:round;stroke-miterlimit:100;paint-order:stroke fill markers"
         d="m -279.21551,-3.4123411 c -0.82159,-0.2680097 -1.5934,-1.1376537 -1.90499,-2.1464752 -0.63652,-2.0608136 0.63361,-3.8420196 2.75584,-3.8647361 0.52636,-0.00563 0.68529,0.026722 1.10453,0.2248681 1.19867,0.5665223 1.92338,1.8465371 1.84393,3.2568341 -0.0623,1.1049517 -0.58527,1.8666807 -1.61139,2.3468637 -0.43534,0.2037173 -0.63633,0.2488704 -1.19112,0.2675838 -0.41325,0.01394 -0.79284,-0.018405 -0.9968,-0.084938 z m 1.66768,-1.1749233 c 0.66245,-0.3084636 0.94928,-0.8312182 0.8712,-1.5877425 -0.0828,-0.8018721 -0.71082,-1.7969044 -1.28625,-2.0378025 -0.59242,-0.2480119 -1.45162,0.021995 -1.82436,0.5733132 -0.16632,0.2460026 -0.19584,0.3793105 -0.19549,0.8828764 3.9e-4,0.5015879 0.038,0.6717273 0.24395,1.1024566 0.53467,1.1182642 1.29036,1.486253 2.19095,1.0668988 z"
         id="path3" /><path
         style="fill:#000000;stroke-width:0.783588;stroke-linecap:square;stroke-linejoin:round;stroke-miterlimit:100;paint-order:stroke fill markers"
         d="m -292.99247,22.721896 c -0.44902,-0.203976 -0.81005,-0.596919 -1.08874,-1.184964 -0.2172,-0.458302 -0.24162,-0.585129 -0.24162,-1.254267 0,-0.601024 0.0312,-0.803979 0.16223,-1.053671 0.20203,-0.385133 0.64224,-0.749351 0.9321,-0.771208 0.2066,-0.01558 0.2282,0.01354 0.36549,0.492776 0.18353,0.640623 0.18308,0.652036 -0.0298,0.745419 -0.097,0.04254 -0.23906,0.205681 -0.31576,0.362528 -0.36342,0.743264 0.32734,1.820652 0.94503,1.473955 0.28263,-0.158636 0.34039,-0.479993 0.28216,-1.569959 -0.0754,-1.411058 0.1901,-2.039016 1.00585,-2.379254 1.25468,-0.523317 2.45713,0.493605 2.74724,2.323384 0.0979,0.61748 -0.008,1.236989 -0.28095,1.637225 -0.24504,0.35985 -0.69628,0.701069 -0.95268,0.720403 -0.2066,0.01558 -0.2282,-0.01354 -0.36549,-0.492777 -0.18303,-0.638886 -0.18773,-0.593676 0.0779,-0.750601 0.31982,-0.188923 0.48089,-0.506438 0.48,-0.946208 -8.9e-4,-0.442353 -0.29715,-1.146717 -0.5361,-1.274602 -0.28457,-0.152295 -0.61387,-0.101465 -0.78955,0.121875 -0.14696,0.186833 -0.1624,0.312142 -0.1624,1.317881 0,1.307837 -0.11117,1.794321 -0.49857,2.181718 -0.43905,0.439051 -1.15751,0.563323 -1.7364,0.300347 z"
         id="path4" /><path
         style="fill:#000000;stroke-width:0.783588;stroke-linecap:square;stroke-linejoin:round;stroke-miterlimit:100;paint-order:stroke fill markers"
         d="m -262.83929,-3.4954319 c -1.43109,-0.4472507 -2.23989,-1.7634998 -1.98491,-3.2302672 0.20572,-1.1834486 1.00456,-2.2600975 1.93683,-2.610389 1.76902,-0.6646979 3.79159,0.5878617 3.7857,2.3444544 -0.002,0.58059 -0.0526,0.606909 -0.69535,0.3613003 -0.51038,-0.1950286 -0.55719,-0.2316607 -0.55719,-0.4360411 0,-0.5071848 -0.30279,-0.942264 -0.82277,-1.1822517 -0.41925,-0.1934947 -0.79544,-0.1847718 -1.21642,0.028206 -0.95018,0.480696 -1.48862,2.1323618 -0.97877,3.0023618 0.21501,0.3668889 0.83671,0.7392804 1.23421,0.7392804 0.32197,0 0.78453,-0.2605835 1.02712,-0.5786381 l 0.21015,-0.2755219 0.52791,0.1976921 c 0.29034,0.1087307 0.5547,0.2236927 0.58745,0.255471 0.0992,0.096216 -0.44977,0.7913208 -0.84918,1.0752893 -0.20611,0.1465338 -0.50063,0.3013978 -0.6545,0.3441423 -0.38418,0.1067232 -1.15213,0.089342 -1.55028,-0.035089 z"
         id="path5" /><path
         style="fill:#000000;stroke-width:0.783588;stroke-linecap:square;stroke-linejoin:round;stroke-miterlimit:100;paint-order:stroke fill markers"
         d="m -251.98469,7.4474454 c -0.11594,-0.245647 -0.23119,-0.5002055 -0.25612,-0.5656859 -0.0343,-0.090056 0.22225,-0.2517527 1.05315,-0.6638161 0.60416,-0.2996182 1.09848,-0.5702836 1.09848,-0.6014782 0,-0.1086481 -0.94858,-1.9852589 -1.0154,-2.008822 -0.037,-0.013054 -0.52844,0.2073298 -1.09202,0.4897434 -0.56359,0.2824136 -1.06012,0.5134788 -1.1034,0.5134788 -0.0735,0 -0.55041,-0.9596729 -0.55041,-1.1074969 0,-0.074361 5.05821,-2.57537601 5.2086,-2.57537601 0.0492,0 0.60918,1.10481601 0.5754,1.13531091 -0.0135,0.012223 -0.45657,0.2380807 -0.98452,0.5019067 -0.52794,0.2638259 -0.95989,0.5152156 -0.95989,0.5586432 0,0.065619 0.91123,1.9442997 0.98011,2.0206983 0.0121,0.013394 0.44829,-0.1893597 0.96936,-0.4505637 0.52107,-0.2612048 0.97564,-0.4749173 1.01015,-0.4749173 0.0678,0 0.56653,0.9698014 0.56653,1.1016069 0,0.08294 -5.04911,2.5842882 -5.20249,2.5773316 -0.0477,-0.00216 -0.1816,-0.2049174 -0.29753,-0.4505637 z"
         id="path6" /><path
         style="fill:#000000;stroke-width:0.783588;stroke-linecap:square;stroke-linejoin:round;stroke-miterlimit:100;paint-order:stroke fill markers"
         d="m -248.65108,23.372562 c -0.0641,-0.02966 -0.0414,-0.200956 0.0791,-0.597365 l 0.16901,-0.555778 0.3737,-0.09489 c 1.18238,-0.300218 1.44289,-1.817074 0.43719,-2.545602 -1.05601,-0.764964 -2.48143,-0.734657 -3.01979,0.06421 -0.1973,0.29278 -0.30467,0.846348 -0.22541,1.162159 0.0524,0.208749 0.5038,0.714053 0.76579,0.857227 0.12741,0.06963 0.12643,0.103037 -0.0169,0.576416 -0.2353,0.777129 -0.19142,0.733808 -0.55525,0.548196 -0.41486,-0.211646 -0.93501,-0.733675 -1.12911,-1.133187 -0.23393,-0.481489 -0.25498,-1.393992 -0.0464,-2.012699 0.44006,-1.305541 1.51621,-2.019171 2.90146,-1.924051 1.36677,0.09385 2.57275,0.935807 2.95741,2.064701 0.18813,0.552131 0.11089,1.592518 -0.16029,2.159199 -0.25886,0.540919 -0.75578,1.05587 -1.21715,1.261312 -0.33581,0.149531 -1.1343,0.25298 -1.31335,0.170152 z"
         id="path7" /><path
         style="fill:#000000;stroke-width:0.783588;stroke-linecap:square;stroke-linejoin:round;stroke-miterlimit:100;paint-order:stroke fill markers"
         d="m -274.69848,37.608521 c -0.5541,-0.180466 -1.24055,-0.790515 -1.55084,-1.378249 -0.18464,-0.349729 -0.20764,-0.480236 -0.20747,-1.176936 1.6e-4,-0.720715 0.0206,-0.826635 0.25408,-1.320049 0.13963,-0.295053 0.47735,-0.859237 0.75049,-1.253744 0.27314,-0.394507 1.44555,-2.163009 2.60537,-3.930004 2.82834,-4.309018 3.22927,-4.884619 3.49984,-5.024534 0.28748,-0.14866 0.60893,-0.08338 0.84929,0.172483 0.33914,0.360999 0.26197,0.566972 -0.80503,2.148666 -1.22349,1.813663 -2.99039,4.639769 -3.78259,6.05015 -0.77224,1.37483 -1.01747,2.056737 -0.94904,2.638948 0.0949,0.807085 0.71512,1.601924 1.67165,2.142143 0.22626,0.127784 0.42796,0.259163 0.44823,0.291954 0.0203,0.03279 -0.25219,0.195256 -0.60546,0.361033 -0.56473,0.265014 -0.72295,0.303951 -1.31017,0.322422 -0.36734,0.01155 -0.75809,-0.0084 -0.86835,-0.04428 z"
         id="path9" /><path
         style="fill:#000000;stroke-width:0.783588;stroke-linecap:square;stroke-linejoin:round;stroke-miterlimit:100;paint-order:stroke fill markers"
         d="m -256.86724,36.066354 c -0.12929,-0.06722 -1.25253,-0.850791 -2.4961,-1.741263 l -2.26102,-1.61904 0.0439,-0.320077 c 0.0241,-0.176042 0.11539,-0.486919 0.20279,-0.690837 0.25333,-0.590974 0.41678,-0.633692 2.43395,-0.6361 1.97268,-0.0023 2.20748,0.05375 2.87771,0.687619 0.71709,0.678194 1.09105,1.536699 1.0184,2.337919 -0.074,0.816452 -0.67803,1.830923 -1.21068,2.033434 -0.25565,0.0972 -0.33568,0.09041 -0.60892,-0.05166 z"
         id="path10" /><path
         style="fill:#000000;stroke-width:0.783588;stroke-linecap:square;stroke-linejoin:round;stroke-miterlimit:100;paint-order:stroke fill markers"
         d="m -292.03008,46.061964 c -0.2905,-0.03545 -0.70574,-0.123432 -0.92277,-0.195518 -0.92825,-0.308312 -4.81339,-3.161971 -5.85185,-4.298208 -0.58896,-0.644418 -0.76819,-1.058772 -0.76819,-1.775931 0,-0.511978 0.035,-0.660529 0.26634,-1.13035 0.50967,-1.035101 1.15276,-1.448991 2.09956,-1.351273 0.84782,0.0875 1.28802,0.388187 3.00128,2.050068 1.08619,1.053613 1.68332,1.573982 1.97025,1.716963 0.8274,0.412313 1.60209,0.210275 2.43309,-0.634549 0.30536,-0.31044 1.15465,-1.551699 2.69595,-3.940188 1.23758,-1.917837 3.62614,-5.620299 5.30791,-8.227695 1.68177,-2.607396 3.50789,-5.43854 4.05805,-6.291433 1.04791,-1.624537 1.32277,-2.194493 1.32248,-2.742381 -2.3e-4,-0.36765 -0.11994,-1.603952 -0.47526,-4.906651 -0.13266,-1.23301 -0.21722,-2.357453 -0.1896,-2.52097 0.21748,-1.287256 2.15845,-2.1762021 3.58097,-1.640052 0.55804,0.210327 1.14734,0.671741 1.4036,1.099 0.21149,0.352611 0.32702,1.079942 0.77143,4.856843 0.24658,2.09563 0.36894,4.479862 0.26339,5.132514 -0.0496,0.307044 -1.45975,2.45914 -5.37847,8.208664 -9.37423,13.753791 -9.67212,14.179807 -10.42689,14.911617 -1.32442,1.284117 -3.25456,1.912206 -5.16127,1.67953 z"
         id="path11" /><path
         style="fill:#000000;stroke-width:0.783588;stroke-linecap:square;stroke-linejoin:round;stroke-miterlimit:100;paint-order:stroke fill markers"
         d="m -283.27859,46.933648 c -0.1748,-0.07939 -0.4453,-0.2933 -0.60113,-0.475344 -0.97292,-1.136647 -0.16922,-2.852325 1.33513,-2.850126 1.37541,0.002 2.18383,1.487609 1.45288,2.669887 -0.43572,0.704765 -1.42541,1.001453 -2.18688,0.655583 z"
         id="path12"
         inkscape:export-filename="St. Bede's.svg"
         inkscape:export-xdpi="96"
         inkscape:export-ydpi="96" /></g></g></svg>
